<svg width="56" height="49" viewBox="0 0 56 49" fill="none" xmlns="http://www.w3.org/2000/svg">
<path d="M53.459 32.7725C52.4056 32.6941 50.2314 33.8708 49.6374 34.1734C47.5193 35.2381 44.5719 36.9079 42.6331 38.2415C42.4986 38.3312 42.3193 38.4545 42.1848 38.5441C41.3107 39.1045 40.3917 39.4743 39.3719 39.6984C33.746 40.8976 25.5537 41.0209 25.5537 41.0209L25.0718 41.0433C24.7131 41.0657 24.3881 40.8079 24.3433 40.4605C24.2873 40.0795 24.5674 39.7209 24.9709 39.6872L37.1529 38.5329C38.4977 38.3872 39.5624 37.1321 39.4167 35.72C39.271 34.3079 37.971 33.2769 36.6261 33.4225L25.789 33.2881C25.0493 33.2769 23.8726 33.0975 23.1666 32.8846C16.1846 30.8449 12.2398 32.7501 10.1441 33.6467C9.67338 32.8734 8.78803 32.3691 7.80182 32.4363L3.12851 32.7501C1.57074 32.851 0.405219 34.151 0.506081 35.6527L1.25695 46.0304C1.36902 47.5321 2.71385 48.664 4.27162 48.552L8.94493 48.2382C9.93114 48.1709 10.738 47.5657 11.0855 46.7364L31.6166 47.6218C33.9029 47.8683 36.0434 47.5882 38.0606 46.5347L38.6434 46.2321L54.1651 37.1545C54.9271 36.7062 55.4651 35.9329 55.4987 35.0812C55.5323 34.0389 54.9383 32.8846 53.459 32.7725ZM5.98629 46.0976C5.11215 46.0976 4.3949 45.414 4.3949 44.5623C4.3949 43.7105 5.11215 43.0269 5.98629 43.0269C6.86043 43.0269 7.57768 43.7105 7.57768 44.5623C7.57768 45.414 6.86043 46.0976 5.98629 46.0976ZM41.9158 36.3476C41.9383 36.0674 41.9383 35.776 41.9046 35.4846C41.871 35.1148 41.7814 34.7674 41.6693 34.4312C41.6805 34.4088 41.6917 34.3863 41.6917 34.3639C43.3279 33.4674 46.5331 31.9208 48.2814 31.2372C49.1555 30.8898 50.0185 30.9122 50.8142 31.4501C50.1866 31.6743 49.6038 31.9544 49.0547 32.2234C47.2167 33.1424 43.9779 34.9019 42.3977 36.0114C42.2408 36.1234 42.0727 36.2355 41.9158 36.3476ZM46.6004 30.1949C45.334 30.7553 42.9021 31.607 41.7477 32.2458L40.9632 32.6717C40.8848 32.7165 40.8176 32.7613 40.7503 32.8174C40.4029 32.4027 39.9882 32.0553 39.5288 31.7751C40.6046 31.2036 43.0029 30.4303 44.09 30.0044C44.9641 29.657 45.8047 29.6794 46.6004 30.1949ZM29.1959 4.23959C25.8675 4.23959 23.1778 6.94047 23.1778 10.2577C23.1778 13.575 25.8787 16.2759 29.1959 16.2759C32.5244 16.2759 35.2141 13.575 35.2141 10.2577C35.2141 6.94047 32.5244 4.23959 29.1959 4.23959ZM30.9218 12.6336C30.664 12.9474 30.3166 13.1715 29.9132 13.2724C29.7339 13.3172 29.6666 13.4069 29.6666 13.5974C29.6778 13.7767 29.6666 13.956 29.6666 14.1353C29.6666 14.2922 29.5882 14.3819 29.4313 14.3819C29.2408 14.3819 29.0502 14.3819 28.8597 14.3819C28.6916 14.3819 28.6132 14.281 28.6132 14.1241C28.6132 13.9897 28.6132 13.8664 28.6132 13.7319C28.6132 13.4405 28.602 13.4293 28.3218 13.3845C27.9744 13.3284 27.6269 13.25 27.3019 13.0931C27.0442 12.9698 27.0218 12.9026 27.1002 12.6448C27.1563 12.4431 27.2123 12.2526 27.2683 12.0509C27.3356 11.8267 27.4028 11.7931 27.6045 11.9052C27.9632 12.0957 28.3442 12.1965 28.7364 12.2414C28.9942 12.275 29.2408 12.2526 29.4761 12.1405C29.9132 11.95 29.9916 11.4345 29.6106 11.1207C29.4873 11.0198 29.3416 10.9414 29.1847 10.8741C28.7925 10.706 28.389 10.5715 28.0304 10.3586C27.4364 9.99998 27.0554 9.51808 27.1002 8.78962C27.1451 7.97151 27.6157 7.45599 28.3666 7.18703C28.6804 7.07496 28.6804 7.07496 28.6804 6.74995C28.6804 6.63789 28.6804 6.52582 28.6804 6.42495C28.6916 6.1784 28.7252 6.14478 28.9718 6.13357C29.0502 6.13357 29.1175 6.13357 29.1959 6.13357C29.7114 6.13357 29.7114 6.13357 29.7114 6.64909C29.7114 7.01892 29.7114 7.01892 30.0813 7.07496C30.3615 7.11978 30.6304 7.19823 30.8882 7.3103C31.0339 7.37755 31.0899 7.4672 31.0451 7.6241C30.9778 7.84824 30.9218 8.07238 30.8434 8.29652C30.7761 8.50945 30.7089 8.53186 30.5071 8.44221C30.1037 8.25169 29.6778 8.16203 29.2295 8.18445C29.1175 8.19565 28.9942 8.20686 28.8933 8.25169C28.5123 8.41979 28.4451 8.84566 28.7701 9.10342C28.9382 9.2379 29.1287 9.32756 29.3192 9.41721C29.6554 9.56291 30.0028 9.69739 30.3278 9.8767C31.3813 10.4595 31.6503 11.7483 30.9218 12.6336ZM39.6296 10.2577C39.6296 11.1767 38.8787 11.9276 37.9598 11.9276C37.0408 11.9276 36.2899 11.1767 36.2899 10.2577C36.2899 9.33877 37.0408 8.5879 37.9598 8.5879C38.8787 8.5879 39.6296 9.33877 39.6296 10.2577ZM22.1131 10.2577C22.1131 11.1767 21.3623 11.9276 20.4433 11.9276C19.5243 11.9276 18.7734 11.1767 18.7734 10.2577C18.7734 9.33877 19.5243 8.5879 20.4433 8.5879C21.3623 8.5879 22.1131 9.33877 22.1131 10.2577ZM42.3081 0.44043H16.0838C14.5708 0.44043 13.3381 1.6732 13.3381 3.18614V17.3293C13.3381 18.8423 14.5708 20.075 16.0838 20.075H42.3081C43.821 20.075 45.0538 18.8423 45.0538 17.3293V3.18614C45.0538 1.6732 43.821 0.44043 42.3081 0.44043ZM42.7115 14.6957C42.4874 14.6397 42.2633 14.606 42.0279 14.606C40.4925 14.606 39.2486 15.85 39.2486 17.3854C39.2486 17.4974 39.2598 17.6207 39.271 17.7328H18.9079C18.9415 17.5647 18.9528 17.3966 18.9528 17.2173C18.9528 15.6819 17.7088 14.4379 16.1734 14.4379C16.0053 14.4379 15.8484 14.4491 15.6803 14.4828V6.03271C15.8372 6.06633 16.0053 6.07754 16.1734 6.07754C17.7088 6.07754 18.9528 4.83356 18.9528 3.29821C18.9528 3.1189 18.9415 2.95079 18.9079 2.78269H39.327C39.271 2.99562 39.2374 3.23097 39.2374 3.46631C39.2374 5.00167 40.4813 6.24564 42.0167 6.24564C42.252 6.24564 42.4874 6.21202 42.7003 6.15598V14.6957H42.7115ZM13.3829 23.1121C13.3829 22.4621 13.9096 21.9354 14.5596 21.9354H43.8883C44.5383 21.9354 45.065 22.4621 45.065 23.1121C45.065 23.7621 44.5383 24.2889 43.8883 24.2889H14.5484C13.9096 24.2889 13.3829 23.7621 13.3829 23.1121ZM13.3829 27.3708C13.3829 26.7208 13.9096 26.194 14.5596 26.194H43.8883C44.5383 26.194 45.065 26.7208 45.065 27.3708C45.065 28.0208 44.5383 28.5475 43.8883 28.5475H14.5484C13.9096 28.5475 13.3829 28.0208 13.3829 27.3708Z" fill="white"/>
</svg>
