<svg width="68" height="68" viewBox="0 0 68 68" fill="none" xmlns="http://www.w3.org/2000/svg">
<rect width="68" height="68" rx="34" fill="#CE0003"/>
<path d="M34.1983 27.795H26.7324C24.0974 27.795 23.5024 29.1126 23.1766 30.7417L21.9724 36.4792H38.9724L37.7683 30.7417C37.4141 29.1126 36.8333 27.795 34.1983 27.795Z" stroke="white" stroke-width="1.59375" stroke-linecap="round" stroke-linejoin="round"/>
<path d="M41.0693 45.8434C41.1826 47.0901 40.1909 48.1668 38.9159 48.1668H36.9184C35.7709 48.1668 35.6151 47.6709 35.4026 47.0759L35.1901 46.4385C34.8926 45.5743 34.6943 44.9793 33.1643 44.9793H27.7243C26.1943 44.9793 25.9676 45.6451 25.6984 46.4385L25.4859 47.0759C25.2876 47.6851 25.1318 48.1668 23.9701 48.1668H21.9726C20.6976 48.1668 19.6918 47.0901 19.8193 45.8434L20.4143 39.3692C20.5701 37.7684 20.8676 36.4651 23.6584 36.4651H37.2159C40.0068 36.4651 40.3043 37.7684 40.4601 39.3692L41.0693 45.8434Z" stroke="white" stroke-width="1.59375" stroke-linecap="round" stroke-linejoin="round"/>
<path d="M21.9585 33.2917H20.896" stroke="white" stroke-width="1.59375" stroke-linecap="round" stroke-linejoin="round"/>
<path d="M40.021 33.2917H38.9585" stroke="white" stroke-width="1.59375" stroke-linecap="round" stroke-linejoin="round"/>
<path d="M24.0835 40.7292H27.271" stroke="white" stroke-width="1.59375" stroke-linecap="round" stroke-linejoin="round"/>
<path d="M33.646 40.7292H36.8335" stroke="white" stroke-width="1.59375" stroke-linecap="round" stroke-linejoin="round"/>
<path d="M43.5059 29.3817C43.9026 28.4608 43.7609 27.2142 43.0243 26.1233C42.3018 25.0325 41.1968 24.4233 40.1909 24.4375" stroke="white" stroke-width="1.59375" stroke-linecap="round" stroke-linejoin="round"/>
<path d="M47.9118 30.7841C48.5068 28.6449 48.0818 26.0241 46.566 23.7574C45.0501 21.4908 42.7835 20.1024 40.5735 19.8333" stroke="white" stroke-width="1.59375" stroke-linecap="round" stroke-linejoin="round"/>
</svg>
