<svg width="22" height="22" viewBox="0 0 22 22" fill="none" xmlns="http://www.w3.org/2000/svg">
<path d="M13.5933 5.77683C12.9168 5.74567 12.7133 5.74017 11 5.74017C9.28675 5.74017 9.08417 5.74658 8.40767 5.77683C6.66692 5.85658 5.85658 6.68067 5.77683 8.40767C5.74658 9.08417 5.73925 9.28675 5.73925 11C5.73925 12.7133 5.74658 12.9158 5.77683 13.5933C5.85658 15.3157 6.66325 16.1443 8.40767 16.2241C9.08325 16.2543 9.28675 16.2617 11 16.2617C12.7142 16.2617 12.9168 16.2552 13.5933 16.2241C15.334 16.1453 16.1434 15.3184 16.2241 13.5933C16.2543 12.9168 16.2607 12.7133 16.2607 11C16.2607 9.28675 16.2543 9.08417 16.2241 8.40767C16.1434 6.68158 15.3322 5.85658 13.5933 5.77683ZM11 14.2954C9.18042 14.2954 7.70458 12.8205 7.70458 11C7.70458 9.18042 9.18042 7.7055 11 7.7055C12.8196 7.7055 14.2954 9.18042 14.2954 11C14.2954 12.8196 12.8196 14.2954 11 14.2954ZM14.4256 8.34533C14.0003 8.34533 13.6556 8.00067 13.6556 7.57533C13.6556 7.15 14.0003 6.80533 14.4256 6.80533C14.8509 6.80533 15.1956 7.15 15.1956 7.57533C15.1956 7.99975 14.8509 8.34533 14.4256 8.34533ZM13.1386 11C13.1386 12.1816 12.1807 13.1386 11 13.1386C9.81933 13.1386 8.86142 12.1816 8.86142 11C8.86142 9.81842 9.81933 8.86142 11 8.86142C12.1807 8.86142 13.1386 9.81842 13.1386 11ZM11 0C4.92525 0 0 4.92525 0 11C0 17.0748 4.92525 22 11 22C17.0748 22 22 17.0748 22 11C22 4.92525 17.0748 0 11 0ZM17.3782 13.6455C17.2728 15.9784 15.9738 17.2709 13.6464 17.3782C12.9617 17.4093 12.7426 17.4167 11 17.4167C9.25742 17.4167 9.03925 17.4093 8.3545 17.3782C6.0225 17.2709 4.72908 15.9766 4.62183 13.6455C4.59067 12.9617 4.58333 12.7426 4.58333 11C4.58333 9.25742 4.59067 9.03925 4.62183 8.3545C4.72908 6.0225 6.02342 4.72908 8.3545 4.62275C9.03925 4.59067 9.25742 4.58333 11 4.58333C12.7426 4.58333 12.9617 4.59067 13.6464 4.62275C15.9793 4.73 17.2737 6.02708 17.3782 8.3545C17.4093 9.03925 17.4167 9.25742 17.4167 11C17.4167 12.7426 17.4093 12.9617 17.3782 13.6455Z" fill="white"/>
</svg>
