<svg width="53" height="56" viewBox="0 0 53 56" fill="none" xmlns="http://www.w3.org/2000/svg">
<path d="M26.773 9.69531C29.4408 9.69531 31.6034 7.64649 31.6034 5.11914C31.6034 2.59179 29.4408 0.542969 26.773 0.542969C24.1053 0.542969 21.9426 2.59179 21.9426 5.11914C21.9426 7.64649 24.1053 9.69531 26.773 9.69531Z" fill="#CE0003"/>
<path d="M52.7394 12.832C52.7394 11.7363 51.7869 10.834 50.6303 10.834H39.1326L39.5635 10.4258L46.3896 3.95898C47.206 3.18555 47.206 1.91797 46.3896 1.12305C45.5732 0.349609 44.2352 0.349609 43.3961 1.12305L36.57 7.58984L34.2115 9.82422C33.5085 10.4902 32.5787 10.834 31.6489 10.834H26.7731H21.8974C20.9676 10.834 20.0378 10.4902 19.3348 9.82422L16.9763 7.58984L10.1502 1.12305C9.33379 0.349609 7.9958 0.349609 7.15671 1.12305C6.34031 1.89648 6.34031 3.16406 7.15671 3.95898L13.9828 10.4258L14.4137 10.834H2.91593C1.75936 10.834 0.806885 11.7363 0.806885 12.832C0.806885 13.9277 1.75936 14.8301 2.91593 14.8301H15.1167C13.824 16.0547 12.5087 17.3008 12.5087 17.3008H3.73234C2.57576 17.3008 1.62329 18.2031 1.62329 19.2988C1.62329 20.3945 2.57576 21.2969 3.73234 21.2969H13.3931C13.9601 21.2969 14.459 21.082 14.8445 20.7383L19.108 16.6992C19.2214 16.5918 19.3574 16.5273 19.5389 16.5273C19.879 16.5273 20.1512 16.7852 20.1512 17.1074V22.2637V31.9961V52.5996C20.1512 54.1895 21.5119 55.457 23.1673 55.457C24.8228 55.457 26.1835 54.168 26.1835 52.5996V32.5762C26.1835 32.2539 26.4556 31.9961 26.7958 31.9961C27.136 31.9961 27.4081 32.2539 27.4081 32.5762V52.5996C27.4081 54.1895 28.7688 55.457 30.4243 55.457C32.0798 55.457 33.4405 54.168 33.4405 52.5996V31.9961V17.1289C33.4405 16.8066 33.7126 16.5488 34.0528 16.5488C34.2115 16.5488 34.3703 16.6133 34.4836 16.7207L38.7471 20.7598C39.1326 21.1035 39.6315 21.3184 40.1985 21.3184H49.8593C51.0159 21.3184 51.9683 20.416 51.9683 19.3203C51.9683 18.2246 51.0159 17.3223 49.8593 17.3223H41.0829C41.0829 17.3223 39.7676 16.0762 38.475 14.8516H50.6757C51.7869 14.8516 52.7394 13.9492 52.7394 12.832Z" fill="#CE0003"/>
</svg>
