<svg width="49" height="48" viewBox="0 0 49 48" fill="none" xmlns="http://www.w3.org/2000/svg">
<path d="M24.3252 0.203125C11.1319 0.203125 0.42041 10.7157 0.42041 23.6639C0.42041 36.6098 11.1319 47.1224 24.3252 47.1224C37.5184 47.1224 48.2299 36.6098 48.2299 23.6639C48.2299 10.7157 37.5184 0.203125 24.3252 0.203125ZM27.9666 14.7752C27.9666 14.7752 31.5578 18.3068 35.7491 22.4226C36.1006 22.7675 36.2751 23.2181 36.2751 23.6686C36.2751 24.1192 36.1006 24.5674 35.7491 24.9123C31.5578 29.0281 27.969 32.5574 27.969 32.5574C27.6223 32.8976 27.168 33.0666 26.7113 33.0666C26.2523 33.0642 25.7932 32.8929 25.4417 32.548C24.7436 31.8604 24.7388 30.7505 25.4346 30.0677L30.1615 25.4285H14.1588C13.169 25.4285 12.3656 24.6401 12.3656 23.6686C12.3656 22.6972 13.169 21.9087 14.1588 21.9087H30.1615L25.4322 17.2649C24.7388 16.5867 24.746 15.4768 25.4465 14.7916C25.798 14.4467 26.257 14.273 26.7137 14.2707C27.168 14.2707 27.6223 14.4373 27.9666 14.7752Z" fill="white"/>
</svg>
