<svg width="49" height="48" viewBox="0 0 49 48" fill="none" xmlns="http://www.w3.org/2000/svg">
<path d="M24.6748 47.134C37.8681 47.134 48.5796 36.6215 48.5796 23.6732C48.5796 10.7273 37.8681 0.214767 24.6748 0.214767C11.4816 0.214767 0.770096 10.7273 0.770096 23.6732C0.770096 36.6215 11.4816 47.134 24.6748 47.134ZM21.0334 32.562C21.0334 32.562 17.4422 29.0304 13.2509 24.9146C12.8994 24.5696 12.7249 24.1191 12.7249 23.6685C12.7249 23.218 12.8994 22.7698 13.2509 22.4249C17.4422 18.309 21.031 14.7798 21.031 14.7798C21.3777 14.4396 21.832 14.2706 22.2887 14.2706C22.7477 14.273 23.2068 14.4442 23.5583 14.7892C24.2564 15.4767 24.2612 16.5866 23.5654 17.2695L18.8385 21.9086L34.8412 21.9086C35.831 21.9086 36.6344 22.6971 36.6344 23.6685C36.6344 24.64 35.831 25.4284 34.8412 25.4284L18.8385 25.4284L23.5678 30.0723C24.2612 30.7504 24.254 31.8603 23.5535 32.5455C23.202 32.8905 22.743 33.0641 22.2863 33.0665C21.832 33.0665 21.3777 32.8999 21.0334 32.562Z" fill="white"/>
</svg>
