<svg width="46" height="56" viewBox="0 0 46 56" fill="none" xmlns="http://www.w3.org/2000/svg">
<path d="M45.7717 49.4591L38.4903 31.8804C38.3048 31.4327 37.7915 31.2198 37.3436 31.4054C36.8958 31.591 36.683 32.1044 36.8686 32.5521L43.4512 48.4437L37.447 46.704C37.0528 46.5897 36.6319 46.764 36.434 47.1236L33.4185 52.5994L26.3554 35.5475C34.5075 33.9755 40.6844 26.7881 40.6844 18.1841C40.6845 8.43311 32.7515 0.5 23.0004 0.5C13.2494 0.5 5.31631 8.43311 5.31631 18.1841C5.31631 22.1337 6.61805 25.7848 8.81478 28.7316L0.229157 49.4591C0.100083 49.7709 0.161051 50.129 0.386083 50.3803C0.610998 50.6317 0.960306 50.7319 1.28434 50.638L8.36799 48.5853L11.9254 55.0457C12.0804 55.3269 12.3756 55.5 12.694 55.5C12.7102 55.5 12.7264 55.4995 12.7427 55.4987C13.0796 55.48 13.3759 55.2699 13.5051 54.9582L20.3083 38.5339C20.4937 38.0861 20.2811 37.5727 19.8333 37.3872C19.3854 37.2017 18.8721 37.4144 18.6866 37.8622L12.5822 52.5994L9.56687 47.1236C9.36887 46.764 8.94771 46.5897 8.55382 46.704L2.54969 48.4437L10.0855 30.2506C13.3151 33.705 17.9096 35.8682 23.0004 35.8682C23.526 35.8682 24.0458 35.8437 24.5598 35.7986L32.4959 54.9582C32.625 55.2699 32.9214 55.48 33.2582 55.4986C33.2746 55.4995 33.2907 55.5 33.307 55.5C33.6254 55.5 33.9206 55.3269 34.0755 55.0457L37.633 48.5853L44.7167 50.638C45.0409 50.732 45.3899 50.6317 45.6149 50.3803C45.84 50.129 45.9008 49.7709 45.7717 49.4591V49.4591ZM7.07163 18.1841C7.07163 9.40099 14.2173 2.25532 23.0004 2.25532C31.7836 2.25532 38.9292 9.40099 38.9292 18.1841C38.9292 26.9673 31.7836 34.1128 23.0004 34.1128C14.2173 34.1128 7.07163 26.9673 7.07163 18.1841V18.1841Z" fill="#1F1F1F"/>
<path d="M29.8784 16.6131C29.8099 16.4022 29.6296 16.2468 29.4108 16.2101L25.4061 15.5381L23.5295 11.9371C23.427 11.7404 23.2236 11.617 23.0017 11.617C22.78 11.617 22.5765 11.7404 22.474 11.9371L20.5973 15.5381L16.5927 16.2101C16.3739 16.2468 16.1937 16.4021 16.1251 16.6131C16.0565 16.8241 16.111 17.0557 16.2664 17.214L19.1112 20.1116L18.5129 24.1279C18.4802 24.3473 18.5723 24.5667 18.7518 24.6971C18.9311 24.8274 19.1683 24.8472 19.3668 24.7484L23.0017 22.9382L26.6366 24.7484C26.7206 24.7902 26.8114 24.8108 26.9019 24.8108C27.0254 24.8108 27.1482 24.7724 27.2517 24.6972C27.4312 24.5668 27.5233 24.3474 27.4906 24.128L26.8923 20.1116L29.7371 17.214C29.8925 17.0557 29.9469 16.8241 29.8784 16.6131ZM25.8353 19.4892C25.7045 19.6224 25.6438 19.8092 25.6713 19.9938L26.1451 23.1738L23.2671 21.7406C23.1835 21.699 23.0927 21.6782 23.0017 21.6782C22.9109 21.6782 22.8199 21.6989 22.7365 21.7406L19.8585 23.1738L20.3322 19.9938C20.3598 19.8092 20.2991 19.6224 20.1683 19.4892L17.9159 17.195L21.0866 16.6628C21.2707 16.6319 21.4296 16.5165 21.5159 16.351L23.0017 13.4999L24.4876 16.351C24.574 16.5166 24.7328 16.632 24.9169 16.6629L28.0877 17.195L25.8353 19.4892Z" fill="#1F1F1F"/>
<path d="M26.3174 32.242V29.7388C27.1771 29.4901 28.0059 29.1466 28.791 28.7131L30.5615 30.4843L35.3145 25.7313L33.5433 23.9608C33.9775 23.1757 34.3203 22.3476 34.569 21.4872H37.0722V14.7654H34.569C34.3203 13.9057 33.9768 13.0769 33.5433 12.2918L35.3145 10.5213L30.5615 5.76836L28.791 7.53954C28.0059 7.10532 27.1778 6.76251 26.3174 6.5138V4.01062H19.5956V6.5138C18.7359 6.76251 17.9071 7.10599 17.122 7.53954L15.3515 5.76836L10.5986 10.5213L12.3697 12.2918C11.9355 13.0769 11.5927 13.905 11.344 14.7654H8.84082V21.4872H11.344C11.5927 22.3469 11.9362 23.1757 12.3697 23.9608L10.5986 25.7313L15.3515 30.4843L17.122 28.7131C17.9071 29.1473 18.7352 29.4901 19.5956 29.7388V32.242H26.3174ZM17.3633 27.2988L16.9116 27.0232L15.3522 28.5833L12.5001 25.7313L14.0603 24.1719L13.7847 23.7202C13.2032 22.7684 12.7757 21.7379 12.5143 20.6577L12.3899 20.1428H10.1852V16.1098H12.3899L12.5143 15.5949C12.7757 14.5154 13.2026 13.4843 13.7847 12.5325L14.0603 12.0808L12.5001 10.5213L15.3522 7.66927L16.9116 9.22939L17.3633 8.9538C18.3151 8.37237 19.3456 7.94486 20.4258 7.68339L20.94 7.55971V5.35497H24.973V7.55971L25.4879 7.68406C26.5674 7.94554 27.5986 8.37237 28.5504 8.95447L29.0021 9.23006L30.5615 7.66994L33.4135 10.522L31.8534 12.0814L32.129 12.5331C32.7105 13.4849 33.138 14.5154 33.3994 15.5956L33.5231 16.1098H35.7278V20.1428H33.5231L33.3988 20.6577C33.1373 21.7372 32.7105 22.7684 32.1283 23.7202L31.8528 24.1719L33.4129 25.7313L30.5608 28.5833L29.0014 27.0232L28.5497 27.2988C27.5979 27.8803 26.5674 28.3078 25.4873 28.5692L24.973 28.6929V30.8976H20.94V28.6929L20.4251 28.5686C19.3456 28.3071 18.3151 27.8803 17.3633 27.2988Z" fill="#1F1F1F"/>
</svg>
