<svg width="22" height="22" viewBox="0 0 22 22" fill="none" xmlns="http://www.w3.org/2000/svg">
<path d="M11 0C4.92525 0 0 4.92525 0 11C0 17.0748 4.92525 22 11 22C17.0748 22 22 17.0748 22 11C22 4.92525 17.0748 0 11 0ZM16.5605 8.84125C16.7283 12.5446 13.9663 16.6733 9.07683 16.6733C7.59 16.6733 6.20675 16.2369 5.04167 15.4898C6.43867 15.6548 7.83292 15.2662 8.93933 14.3999C7.788 14.3788 6.81542 13.6171 6.479 12.5712C6.89242 12.65 7.29942 12.6271 7.66883 12.5262C6.40292 12.2714 5.52842 11.1311 5.55683 9.911C5.9125 10.1081 6.31767 10.2263 6.74942 10.2401C5.577 9.45633 5.24517 7.90808 5.9345 6.72467C7.2325 8.31783 9.17308 9.36558 11.3612 9.47558C10.9771 7.82925 12.2265 6.2425 13.9269 6.2425C14.6832 6.2425 15.3679 6.56242 15.8483 7.07392C16.4478 6.95658 17.0124 6.73658 17.5203 6.435C17.3232 7.05008 16.9061 7.56525 16.3625 7.89158C16.8951 7.82742 17.4029 7.68625 17.8741 7.47633C17.5221 8.00617 17.0766 8.47 16.5605 8.84125Z" fill="white"/>
</svg>
