<svg width="70" height="60" viewBox="0 0 70 60" fill="none" xmlns="http://www.w3.org/2000/svg">
<g clip-path="url(#clip0_269_452)">
<path d="M67.5917 22.7425C66.9448 22.5619 66.2245 22.4765 64.7073 22.2892C58.4276 22.0316 42.9086 21.4282 35.0004 21.4282C27.0924 21.4282 11.5731 22.0313 5.2941 22.2892C3.77615 22.4765 3.05515 22.5619 2.4087 22.7425C0.43435 23.208 0 23.9167 0 25.3307V35.0219C0 36.4362 1.51515 37.3893 2.55955 37.5814C3.60465 37.775 4.2658 37.8523 5.36515 37.957C10.9816 38.3049 24.0121 39.0301 35 39.0416C45.9883 39.0311 59.0181 38.3052 64.6348 37.957C65.7338 37.8523 66.3953 37.7746 67.4408 37.5814C68.4848 37.3889 70 36.4362 70 35.0219V25.3307C70 23.9167 69.566 23.208 67.5917 22.7425Z" fill="url(#paint0_linear_269_452)"/>
<path d="M9.81756 23.1237C12.9074 12.3752 23.0598 4.48865 35.1114 4.48865C47.1283 4.48865 57.2601 12.3318 60.38 23.0372C60.3898 23.075 60.3964 23.0946 60.4073 23.131C62.1986 22.9298 63.8033 22.619 64.9373 22.3162C64.9167 22.2473 64.9114 22.2333 64.8936 22.1654C61.3477 9.41314 49.3574 0.0292969 35.1114 0.0292969C20.8174 0.0292969 8.79556 9.47405 5.29346 22.2893C6.86881 22.7208 8.02276 22.9018 9.81756 23.1237Z" fill="url(#paint1_radial_269_452)"/>
<path d="M60.3061 37.2109C60.275 37.3065 60.2403 37.4118 60.2242 37.464C56.9388 47.9122 46.9393 55.5114 35.1117 55.5114C23.1907 55.5114 13.1282 47.7949 9.92258 37.2211C7.96328 37.5679 7.30143 37.6999 5.36523 37.9575C8.95273 50.6474 20.9101 59.9707 35.1117 59.9707C49.3193 59.9707 61.2809 50.6376 64.8617 37.9372C63.1558 37.7265 62.151 37.5672 60.3061 37.2109Z" fill="url(#paint2_radial_269_452)"/>
<path d="M10.4483 23.1004C11.192 22.7931 11.9116 22.3031 13.0334 21.9877C16.3776 13.299 24.9995 7.11165 35.111 7.11165C45.191 7.11165 53.7916 13.2608 57.1568 21.9076C57.1687 21.937 57.181 21.9727 57.1904 21.9947C57.7693 22.1953 59.4749 22.8869 60.0055 23.1182C60.0807 23.12 60.2414 23.1256 60.4073 23.1301C60.3976 23.099 60.3885 23.0677 60.38 23.0363C57.2587 12.3344 47.1272 4.49365 35.111 4.49365C23.0626 4.49365 12.9102 12.3767 9.81934 23.1231C9.99784 23.1235 10.3377 23.1081 10.4483 23.1004Z" fill="url(#paint3_radial_269_452)"/>
<path d="M34.9191 5.22088C46.1936 5.22088 56.1879 11.9437 59.9735 23.025L60.0043 23.1192C60.0631 23.1192 60.2776 23.1269 60.4061 23.1311C60.3959 23.0908 60.3854 23.0674 60.3788 23.0373C57.2575 12.3353 47.126 4.49463 35.1098 4.49463C23.0614 4.49463 12.909 12.3777 9.81812 23.1241C10.0589 23.1202 10.1748 23.1202 10.4478 23.101C13.8323 12.5807 23.7275 5.22088 34.9191 5.22088Z" fill="white"/>
<path d="M59.6671 37.2415C58.8572 37.6941 57.8489 38.1295 57.0428 38.3839C57.0319 38.4098 56.9861 38.5246 56.9763 38.5516C53.4896 46.9593 45.0136 52.8942 35.1114 52.8942C25.1469 52.8942 16.6276 46.8872 13.1815 38.3962C12.2543 38.1389 10.8683 37.5068 10.3437 37.2429C10.1473 37.2335 10.0416 37.2279 9.9209 37.2216C13.1265 47.794 23.1908 55.5119 35.1118 55.5119C46.9789 55.5119 57.0043 47.8647 60.2568 37.3668C60.2638 37.3465 60.2999 37.231 60.3076 37.2114C60.1196 37.2188 59.8323 37.2415 59.6671 37.2415Z" fill="url(#paint4_radial_269_452)"/>
<path d="M67.0306 23.444C65.3674 23.2417 64.2334 23.2634 60.1818 23.1237C59.9977 23.1171 59.8104 23.1115 59.6204 23.1048C52.2739 22.8528 41.2384 22.5161 35 22.5161C28.7619 22.5161 17.7268 22.8528 10.3792 23.1048C10.1895 23.1115 10.003 23.1171 9.81925 23.1237C5.76695 23.2634 4.6333 23.2417 2.96975 23.444C1.30655 23.648 0 24.3764 0 25.615V34.602C0 35.8413 1.57395 36.8448 2.9694 36.8448C2.9694 36.8448 20.7305 37.9413 35 37.9543C49.2698 37.9413 67.0306 36.8448 67.0306 36.8448C68.426 36.8448 70 35.8413 70 34.602V25.615C70 24.3764 68.6938 23.648 67.0306 23.444Z" fill="url(#paint5_radial_269_452)"/>
<path d="M59.6672 37.2415C56.1815 47.5815 46.3787 54.7845 35.3058 54.7845C24.1201 54.7845 14.1948 48.1674 10.3427 37.2415C10.2013 37.2341 10.0613 37.2285 9.9231 37.2205C13.128 47.7933 23.194 55.5111 35.1154 55.5111C47.0406 55.5111 57.1076 47.7884 60.3098 37.21C60.0991 37.2198 59.8852 37.2313 59.6672 37.2415Z" fill="white"/>
<path d="M59.6873 37.2407L59.666 37.2414C58.8561 37.694 57.8484 38.1294 57.0417 38.3838C57.0308 38.4097 56.985 38.5245 56.9755 38.5515C55.8723 41.2122 54.2693 43.6251 52.2778 45.6813C55.3949 43.4025 57.9373 40.5234 59.6873 37.2407Z" fill="#8C8C8C"/>
<path d="M18.6163 46.3504C16.272 44.1174 14.4058 41.4144 13.1808 38.3956C12.2537 38.138 10.868 37.5056 10.343 37.2417C10.904 38.4047 11.5655 39.5166 12.3198 40.5646C13.863 42.5743 15.7334 44.3656 17.8624 45.8815C18.1102 46.0439 18.3615 46.1999 18.6163 46.3504Z" fill="#4D4D4D"/>
<path d="M9.92199 37.2219V37.2212L9.91394 37.2226C7.96094 37.5687 7.29839 37.7014 5.36499 37.9576C5.52074 38.5106 5.69329 39.0555 5.88124 39.5949L9.92199 37.2219Z" fill="#252525"/>
<path d="M49.2228 27.4243C48.639 26.1195 48.8462 26.2563 47.5753 26.2227C47.4721 26.1877 47.1966 26.1877 46.8193 26.1877C46.4427 26.1877 46.3734 26.1877 46.064 26.2227C44.8628 26.2227 45.0686 26.1541 44.657 27.0123C44.657 27.0123 42.5952 31.647 41.7034 33.5696L41.6691 33.6382C41.4976 33.9808 41.6008 33.9808 41.8749 33.9808H43.7295C43.8674 33.9808 43.9353 33.9136 43.9696 33.8436C43.9696 33.8436 44.2444 33.2598 44.5877 32.4363H49.1199C49.4636 33.2262 49.7037 33.8093 49.7037 33.8436C49.738 33.9469 49.8412 33.9808 49.9438 33.9808H51.8667C52.1414 33.9808 52.2104 34.0169 52.1075 33.775C51.7634 32.9515 49.5318 28.1442 49.2228 27.4243ZM45.2737 30.7885C45.8575 29.4154 46.442 28.0767 46.442 28.042C46.4767 27.9731 46.5453 27.9388 46.6478 27.9388C46.6825 27.9038 46.7861 27.9038 46.8886 27.9038C46.9576 27.9038 47.0598 27.9038 47.0944 27.9388C47.1627 27.9388 47.2327 27.9731 47.2656 28.0763C47.4042 28.4533 47.918 29.6212 48.3985 30.7885H45.2737ZM20.5525 26.1191C20.724 26.1191 20.7587 26.1874 20.7587 26.3249V33.6732C20.7587 33.844 20.724 33.914 20.5186 33.914H18.7329C18.5274 33.914 18.4931 33.879 18.4931 33.6732V26.3249C18.4931 26.1874 18.5274 26.1191 18.6643 26.1191H20.5525ZM16.7414 26.1874C16.9468 26.1874 16.9822 26.2556 16.9822 26.4282V33.7418C16.9822 33.9483 16.9468 33.9826 16.7414 33.9826H14.6466C13.4111 33.9826 13.3079 33.9826 12.8963 33.2966C12.0377 31.9578 9.46208 28.0091 9.46208 28.0091V33.7425C9.46208 33.9493 9.42778 33.9829 9.22233 33.9829H7.67673C7.47093 33.9829 7.43628 33.9493 7.43628 33.7425V26.4282C7.43628 26.2563 7.47093 26.1874 7.67673 26.1874H9.46208C10.8012 26.1874 10.9727 26.1534 11.4543 26.8401C11.8316 27.4586 14.956 32.2651 14.956 32.2651V26.4282C14.956 26.2563 14.9903 26.1874 15.1968 26.1874H16.7414ZM62.5788 26.1874C62.786 26.1874 62.8196 26.2556 62.8196 26.4282V33.7418C62.8196 33.9483 62.7853 33.9826 62.5788 33.9826H60.4861C59.2489 33.9826 59.1456 33.9826 58.734 33.2966C57.8748 31.9568 55.2998 28.0084 55.2998 28.0084V33.7421C55.2998 33.9486 55.2655 33.9822 55.059 33.9822H53.5148C53.309 33.9822 53.2737 33.9486 53.2737 33.7421V26.4282C53.2737 26.2563 53.3094 26.1874 53.5148 26.1874H55.2998C56.6389 26.1874 56.8111 26.1534 57.291 26.8401C57.7033 27.4586 60.7938 32.2651 60.7938 32.2651V26.4282C60.7938 26.2563 60.8284 26.1874 61.0346 26.1874H62.5788ZM28.4156 29.1757C29.7894 29.3125 30.7855 29.5526 31.0599 30.8578C31.0599 30.96 31.0945 31.3037 31.0945 31.6817C31.0945 31.9225 31.0945 32.2305 31.0256 32.5056C30.7858 33.7414 29.858 33.9815 28.4167 33.9815H22.6473C22.4411 33.9815 22.4065 33.9479 22.4065 33.7414V32.5056C22.4065 32.2991 22.4411 32.2648 22.6473 32.2648H28.4835C28.7243 32.2648 28.7929 32.1965 28.8269 32.024V31.7149V31.5091C28.7922 31.3712 28.7583 31.1654 28.4496 31.1318C27.7968 31.0975 25.8746 30.9253 24.5691 30.7885C22.8867 30.6166 22.4751 29.8963 22.4061 29.2779C22.3718 29.0714 22.3718 28.797 22.3718 28.5565C22.3718 28.3504 22.3718 28.0417 22.4061 27.8009C22.6469 26.7015 23.4712 26.1874 24.9125 26.1874H30.509C30.7158 26.1874 30.7848 26.2224 30.7848 26.3935V27.6644C30.7848 27.8348 30.7158 27.9041 30.509 27.8698H25.0157C24.7753 27.8698 24.6727 27.9727 24.6377 28.2128V28.5219C24.6377 28.6937 24.741 28.8313 24.9811 28.8645C25.6349 28.9345 27.66 29.106 28.4156 29.1757ZM38.3378 29.1757C39.7126 29.3125 40.7076 29.5526 40.9827 30.8578C40.9827 30.96 41.017 31.3037 41.017 31.6817C41.017 31.9225 41.017 32.2305 40.9484 32.5056C40.7087 33.7414 39.7819 33.9815 38.3392 33.9815H32.5701C32.364 33.9815 32.3293 33.9479 32.3293 33.7414V32.5056C32.3293 32.2991 32.364 32.2648 32.5701 32.2648H38.4074C38.6475 32.2648 38.7151 32.1965 38.7504 32.024V31.7149V31.5091C38.7147 31.3712 38.6468 31.1654 38.3724 31.1318C37.7204 31.0975 35.7975 30.9253 34.493 30.7885C32.8099 30.6166 32.4329 29.8963 32.3293 29.2779C32.295 29.0714 32.295 28.797 32.295 28.5565C32.295 28.3504 32.295 28.0417 32.3293 27.8009C32.5701 26.7015 33.394 26.1874 34.8357 26.1874H40.4332C40.6383 26.1874 40.708 26.2224 40.708 26.3935V27.6644C40.708 27.8348 40.6383 27.9041 40.4332 27.8698H34.9389C34.6988 27.8698 34.5963 27.9727 34.5613 28.2128V28.5219C34.5613 28.6937 34.6302 28.8313 34.9053 28.8645C35.5577 28.9345 37.5828 29.106 38.3378 29.1757Z" fill="url(#paint6_radial_269_452)"/>
</g>
<defs>
<linearGradient id="paint0_linear_269_452" x1="35" y1="0.914023" x2="35" y2="49.7044" gradientUnits="userSpaceOnUse">
<stop offset="0.194" stop-color="white"/>
<stop offset="0.208" stop-color="#F8F8F8"/>
<stop offset="0.366" stop-color="#AEAEAE"/>
<stop offset="0.513" stop-color="#707070"/>
<stop offset="0.647" stop-color="#404040"/>
<stop offset="0.764" stop-color="#1D1D1D"/>
<stop offset="0.86" stop-color="#080808"/>
<stop offset="0.922"/>
</linearGradient>
<radialGradient id="paint1_radial_269_452" cx="0" cy="0" r="1" gradientUnits="userSpaceOnUse" gradientTransform="translate(15.35 -12.0209) scale(48.8121 48.812)">
<stop offset="0.202" stop-color="white"/>
<stop offset="0.382" stop-color="#FDFDFD"/>
<stop offset="0.487" stop-color="#F4F4F4"/>
<stop offset="0.573" stop-color="#E6E6E6"/>
<stop offset="0.648" stop-color="#D2D2D2"/>
<stop offset="0.689" stop-color="#C4C4C4"/>
<stop offset="1" stop-color="#333333"/>
</radialGradient>
<radialGradient id="paint2_radial_269_452" cx="0" cy="0" r="1" gradientUnits="userSpaceOnUse" gradientTransform="translate(133.478 66.1633) scale(101.657 101.658)">
<stop offset="0.202" stop-color="white"/>
<stop offset="0.368" stop-color="#E4E4E4"/>
<stop offset="0.594" stop-color="#C4C4C4"/>
<stop offset="1" stop-color="#333333"/>
</radialGradient>
<radialGradient id="paint3_radial_269_452" cx="0" cy="0" r="1" gradientUnits="userSpaceOnUse" gradientTransform="translate(27.0743 43.7301) scale(31.2091 31.2091)">
<stop offset="0.202" stop-color="white"/>
<stop offset="0.368" stop-color="#E4E4E4"/>
<stop offset="0.594" stop-color="#C4C4C4"/>
<stop offset="1" stop-color="#333333"/>
</radialGradient>
<radialGradient id="paint4_radial_269_452" cx="0" cy="0" r="1" gradientUnits="userSpaceOnUse" gradientTransform="translate(52.2593 75.6425) scale(59.2179 59.2179)">
<stop offset="0.202" stop-color="white"/>
<stop offset="0.368" stop-color="#E4E4E4"/>
<stop offset="0.594" stop-color="#C4C4C4"/>
<stop offset="1" stop-color="#333333"/>
</radialGradient>
<radialGradient id="paint5_radial_269_452" cx="0" cy="0" r="1" gradientUnits="userSpaceOnUse" gradientTransform="translate(34.531 6.20401) scale(47.0582 47.0582)">
<stop offset="0.202" stop-color="white"/>
<stop offset="0.397" stop-color="#FDFDFD"/>
<stop offset="0.51" stop-color="#F4F4F4"/>
<stop offset="0.603" stop-color="#E6E6E6"/>
<stop offset="0.684" stop-color="#D2D2D2"/>
<stop offset="0.728" stop-color="#C4C4C4"/>
<stop offset="1" stop-color="#4D4D4D"/>
</radialGradient>
<radialGradient id="paint6_radial_269_452" cx="0" cy="0" r="1" gradientUnits="userSpaceOnUse" gradientTransform="translate(35.6207 10.9165) scale(31.6964 31.6963)">
<stop offset="0.111" stop-color="#4D4D4D"/>
<stop offset="0.248" stop-color="#494949"/>
<stop offset="0.355" stop-color="#404040"/>
<stop offset="0.451" stop-color="#2F2F2F"/>
<stop offset="0.541" stop-color="#181818"/>
<stop offset="0.611"/>
</radialGradient>
<clipPath id="clip0_269_452">
<rect width="70" height="59.948" fill="white" transform="translate(0 0.0258789)"/>
</clipPath>
</defs>
</svg>
