<svg width="73" height="62" viewBox="0 0 73 62" fill="none" xmlns="http://www.w3.org/2000/svg">
<g clip-path="url(#clip0_269_433)">
<path d="M36.4133 54.6025C36.4023 51.0113 39.2966 48.1141 42.9118 48.1079C46.4384 48.1136 49.335 51.0108 49.4061 54.6025C49.3358 58.1535 46.4391 61.0507 42.9118 61.1009C39.2966 61.0507 36.4025 58.1535 36.4133 54.6025ZM42.912 58.707C44.8636 58.6768 46.4793 56.843 46.4994 54.6025C46.4793 52.319 44.8636 50.4851 42.912 50.498C40.876 50.4846 39.2564 52.3185 39.3208 54.6025C39.2564 56.8427 40.876 58.6766 42.912 58.707ZM56.7567 50.8403V60.7589H54.0233V50.8403H50.0901V48.6212H60.5189V50.8403H56.7567V50.8403ZM63.7651 58.0199L62.7417 60.7592H59.4958L64.6231 48.6212H68.0405L73 60.7592H69.7539L68.7281 58.0199H63.7651V58.0199ZM66.3334 55.9707H68.0405L66.3334 51.524L64.6231 55.9707H66.3334ZM6.49561 50.8403V60.7589H3.76041V50.8403H0V48.6212H10.2578V50.8403H6.49561V50.8403ZM10.9418 54.6025C10.9472 51.0113 13.84 48.1141 17.4351 48.1079C20.9838 48.1136 23.881 51.0108 23.9333 54.6025C23.881 58.1535 20.9838 61.0507 17.4351 61.1009C13.84 61.0507 10.947 58.1535 10.9418 54.6025ZM17.4351 58.707C19.4098 58.6768 21.0243 56.843 21.0261 54.6025C21.024 52.319 19.4098 50.4851 17.4351 50.498C15.4192 50.4846 13.8019 52.3185 13.8491 54.6025C13.8019 56.8427 15.4192 58.6766 17.4351 58.707ZM30.088 60.7589H31.4541V56.1415L36.2423 48.6212H33.1662L30.088 53.7475L27.1807 48.6212H23.9336L28.7218 56.1415V60.7589H30.088Z" fill="#D8D8D8"/>
<path d="M2.20117 21.9031C2.20117 33.4846 17.2603 42.9076 35.7699 42.9076C54.2791 42.9076 69.3386 33.4846 69.3386 21.9031C69.3383 10.3206 54.2791 0.898926 35.7696 0.898926C17.2601 0.898926 2.20117 10.3206 2.20117 21.9031ZM3.23128 21.9031C3.23128 10.8907 17.8277 1.93084 35.7699 1.93084C53.7115 1.93084 68.3085 10.8907 68.3085 21.9031C68.3085 32.9178 53.7115 41.8775 35.7699 41.8775C17.8277 41.8772 3.23128 32.9181 3.23128 21.9031V21.9031Z" fill="black"/>
<path d="M32.5978 4.71739C24.7411 5.19717 19.0346 7.27953 18.0619 10.023C17.9629 10.2994 17.9118 10.5908 17.911 10.8844C17.911 11.3472 18.0418 11.81 18.3014 12.2524C19.3918 14.1102 22.7765 15.6422 27.593 16.464L28.1029 16.5474L28.1884 16.038C28.979 11.2153 30.7145 7.42298 32.9516 5.63239L34.2192 4.6167L32.5978 4.71739V4.71739ZM19.1907 11.733C19.0227 11.4474 18.9401 11.1656 18.9401 10.888C18.9401 10.7129 18.9702 10.5419 19.0325 10.3678C19.775 8.27204 24.8187 6.44154 31.2617 5.85103C29.4238 7.93005 28.0105 11.2802 27.2732 15.3504C23.0863 14.5758 20.0758 13.2418 19.1907 11.733V11.733ZM31.1613 16.3463L31.0606 16.9067L31.629 16.9499C32.9769 17.0506 34.3704 17.105 35.7685 17.105C37.1679 17.105 38.5621 17.0506 39.9103 16.9499L40.4776 16.9067L40.3767 16.3463C39.6018 11.9946 37.8779 9.39512 35.7692 9.39512C33.6591 9.39512 31.9359 11.9946 31.1613 16.3463V16.3463ZM35.7695 10.4252C37.2111 10.4252 38.542 12.5841 39.2433 15.9541C38.1032 16.0285 36.942 16.0749 35.7685 16.0749C34.5965 16.0749 33.4348 16.0285 32.296 15.9541C32.9952 12.5841 34.3281 10.4252 35.7695 10.4252V10.4252ZM38.5863 5.6329C40.8227 7.42349 42.56 11.2164 43.3506 16.0386L43.4351 16.5479L43.9442 16.4645C48.7628 15.6427 52.1493 14.1102 53.2358 12.2526C53.6584 11.5388 53.7387 10.7677 53.4773 10.0237C52.5049 7.28056 46.7981 5.1982 38.942 4.71791L37.3226 4.61721L38.5863 5.6329V5.6329ZM40.2793 5.85103C46.7206 6.44154 51.764 8.27539 52.5044 10.3678C52.5688 10.5419 52.5989 10.7129 52.5989 10.888C52.5989 11.1656 52.5144 11.4474 52.3504 11.733C51.4622 13.2415 48.4507 14.5758 44.2658 15.3504C43.5285 11.2805 42.1173 7.9303 40.2793 5.85103V5.85103ZM13.0906 12.0448C9.55965 15.0025 7.6936 18.5162 7.6936 22.2079C7.6936 30.8922 18.2831 38.2328 32.3243 39.2789L33.8926 39.3965L32.6985 38.3765C29.6223 35.7448 27.712 29.5008 27.712 22.0801L27.7442 20.3269L27.3136 20.2393C19.928 18.9157 14.6736 15.8101 13.9255 12.3325L13.7465 11.4976L13.0906 12.0448V12.0448ZM8.72474 22.2079C8.72474 19.0424 10.2689 16.0043 13.1681 13.3657C14.5189 16.8796 19.5659 19.807 26.6999 21.169C26.6909 21.5713 26.6829 22.0801 26.6829 22.0801C26.6829 28.9608 28.3156 34.903 31.0086 38.1089C18.2146 36.7438 8.72474 30.0612 8.72474 22.2079V22.2079ZM30.7418 21.2798L30.7387 21.4667C30.7387 28.3643 32.9014 33.5682 35.7695 33.5682C38.6366 33.5682 40.7995 28.3643 40.7995 21.4667L40.7926 20.7225L40.2394 20.7698C38.7808 20.8976 37.2789 20.9609 35.77 20.9609C34.2612 20.9609 32.7572 20.8976 31.3024 20.7698L30.7472 20.7196L30.7418 21.2798V21.2798ZM39.7632 21.8327C39.6857 28.2505 37.6639 32.5389 35.7695 32.5389C33.8733 32.5389 31.8512 28.2505 31.7758 21.8327C33.0855 21.9292 34.4234 21.9895 35.7695 21.9895C37.1177 21.9895 38.4516 21.9292 39.7632 21.8327ZM57.6117 12.3325C56.8643 15.8101 51.609 18.9154 44.2257 20.2393L43.793 20.3197L43.8273 22.0799C43.8273 29.5005 41.9159 35.7448 38.8408 38.3762L37.6466 39.3963L39.2129 39.2786C53.2554 38.2325 63.8451 30.892 63.8451 22.2076C63.8451 18.516 61.977 15.0023 58.4461 12.0446L57.7922 11.4973L57.6117 12.3325V12.3325ZM58.3691 13.3657C61.2704 16.0043 62.8155 19.0424 62.8155 22.2079C62.8155 30.0612 53.3262 36.7438 40.5309 38.1089C43.2239 34.903 44.8566 28.9608 44.8566 22.0801C44.8566 22.0801 44.8466 21.571 44.8396 21.169C51.9713 19.807 57.0181 16.8794 58.3691 13.3657V13.3657Z" fill="black"/>
<path d="M57.9772 9.68085C58.0246 9.81167 58.0678 9.94507 58.1018 10.0792C58.296 10.8508 58.2558 11.6084 58.0042 12.3468C61.3541 15.1093 63.3289 18.5164 63.3289 22.208C63.3289 31.4223 50.9897 38.8937 35.7698 38.8937C20.5489 38.8937 8.21079 31.4223 8.21079 22.208C8.21079 18.5194 10.1876 15.1095 13.5334 12.3468C13.2838 11.6084 13.2436 10.8508 13.4378 10.0792C13.478 9.93284 13.5315 9.79043 13.5977 9.65381C9.02664 12.9105 6.25513 17.1785 6.25513 21.8529C6.25513 32.0592 19.4683 40.3323 35.7696 40.3323C52.0687 40.3323 65.284 32.0592 65.284 21.8529C65.2845 17.1883 62.5241 12.9301 57.9772 9.68085V9.68085Z" fill="url(#paint0_linear_269_433)"/>
<path d="M39.8699 16.437C38.5691 16.5346 37.1981 16.5879 35.7685 16.5879C34.34 16.5879 32.97 16.5346 31.6692 16.437H31.6651L30.815 17.0546C32.3833 17.1913 34.0395 17.2688 35.7693 17.2688C37.4994 17.2688 39.1553 17.1913 40.7246 17.0546L39.8699 16.437ZM54.9458 9.96253C53.9098 6.53819 45.3692 4.02344 35.7696 4.02344C26.1715 4.02344 17.6311 6.53871 16.5951 9.96253C15.6958 12.9331 20.6048 15.6825 28.3497 16.7728L27.6768 15.9537C21.4116 14.8875 17.6878 12.614 18.5469 10.1969C19.5881 7.2621 27.1506 5.13699 35.7688 5.13699C44.3867 5.13699 51.951 7.26262 52.9912 10.1969C53.8493 12.6143 50.1272 14.8877 43.8606 15.9537L43.19 16.7728C50.932 15.6825 55.8443 12.9331 54.9458 9.96253Z" fill="url(#paint1_linear_269_433)"/>
<path d="M31.6797 16.4368C32.399 12.4399 33.9593 9.94219 35.769 9.94219C37.5807 9.94219 39.1397 12.4399 39.86 16.4368H39.8745L40.7158 17.0474C40.0055 11.7691 38.0602 8.396 35.7702 8.396C33.4788 8.396 31.5342 11.7691 30.825 17.0474L31.666 16.4368H31.6797Z" fill="url(#paint2_linear_269_433)"/>
<path d="M40.9705 20.0381L40.2824 21.2825C40.2824 21.3731 40.2865 21.4663 40.2865 21.5608C40.2865 28.186 38.2606 33.2093 35.769 33.2093C33.2751 33.2093 31.2532 28.1855 31.2532 21.5608C31.2532 21.4563 31.2553 21.3525 31.2574 21.2523L30.5682 20.0381C30.5479 20.5431 30.5379 21.0485 30.5381 21.5539C30.5381 29.0652 32.88 34.755 35.77 34.755C38.66 34.755 41.004 29.0652 41.004 21.5539C41.003 21.0485 40.9918 20.5431 40.9705 20.0381V20.0381Z" fill="url(#paint3_linear_269_433)"/>
<path d="M28.3607 16.7755C29.3507 9.43903 32.2932 4.02246 35.7698 4.02246C32.0426 4.02246 28.8657 8.82123 27.6868 15.9676L28.3507 16.7755H28.3607Z" fill="url(#paint4_linear_269_433)"/>
<path d="M43.1796 16.7755H43.1866L43.8505 15.9676C42.6736 8.82123 39.4947 4.02246 35.7695 4.02246C39.2462 4.02298 42.1907 9.43903 43.1796 16.7755Z" fill="url(#paint5_linear_269_433)"/>
<path d="M44.3132 20.7424L43.4683 19.7334H43.4613C43.5087 20.5351 43.5358 21.3499 43.5358 22.1776C43.5358 32.2042 40.0581 40.332 35.7698 40.332C40.5781 40.332 44.3405 32.7936 44.3405 22.1776C44.3405 21.6919 44.3305 21.2155 44.3132 20.7424V20.7424Z" fill="url(#paint6_linear_269_433)"/>
<path d="M28.0056 22.1776C28.0056 21.3499 28.0326 20.5351 28.079 19.7334H28.0733L27.2263 20.7393C27.2084 21.2185 27.199 21.698 27.1982 22.1776C27.1982 32.7936 30.9635 40.332 35.77 40.332C31.4832 40.332 28.0056 32.2039 28.0056 22.1776V22.1776Z" fill="url(#paint7_linear_269_433)"/>
<path d="M58.0041 12.3468C59.2848 13.4032 60.3651 14.5558 61.21 15.7801C60.9175 13.833 60.1429 11.9899 58.9567 10.4184C58.6366 10.164 58.3098 9.91827 57.9765 9.68136C58.0242 9.81219 58.0674 9.94559 58.1009 10.0798C58.2959 10.8511 58.2557 11.6084 58.0041 12.3468ZM13.5335 12.3468C13.2839 11.6084 13.2438 10.8508 13.4379 10.0792C13.4781 9.93284 13.5317 9.79043 13.5979 9.65381C13.2544 9.90168 12.916 10.1566 12.583 10.4184C11.3985 11.9909 10.6241 13.8336 10.3296 15.7801C11.1745 14.5558 12.2528 13.4029 13.5335 12.3468Z" fill="#2D2F34"/>
<path d="M2.71606 21.9034C2.71606 10.5892 17.5136 1.41504 35.7697 1.41504C54.0232 1.41504 68.821 10.5892 68.821 21.9034C68.821 33.2199 54.0232 42.3907 35.7697 42.3907C17.5136 42.3905 2.71606 33.2202 2.71606 21.9034V21.9034ZM35.7694 40.3323C52.0689 40.3323 65.2839 32.0593 65.2839 21.8529C65.2839 11.6456 52.0689 3.36967 35.7694 3.36967C19.468 3.36967 6.25398 11.6461 6.25398 21.8529C6.25398 32.0593 19.4682 40.3323 35.7694 40.3323Z" fill="url(#paint8_linear_269_433)"/>
<path d="M28.0056 22.1778C28.0056 12.2566 31.4833 4.02344 35.7695 4.02344C40.0579 4.02344 43.5358 12.2566 43.5358 22.1778C43.5358 32.2044 40.0579 40.3322 35.7695 40.3322C31.4812 40.3322 28.0056 32.2041 28.0056 22.1778V22.1778ZM35.7695 34.7552C38.6598 34.7552 41.0038 29.0654 41.0038 21.5572C41.0038 13.7652 38.6595 8.39651 35.7695 8.39651C32.8796 8.39651 30.5376 13.7652 30.5376 21.5572C30.5376 29.0654 32.8796 34.7552 35.7695 34.7552V34.7552Z" fill="url(#paint9_linear_269_433)"/>
<path d="M13.4376 10.0792C14.2895 6.70635 24.5921 1.79736 35.7693 1.79736C46.9455 1.79736 56.8943 5.30489 58.1013 10.0792C59.4523 15.4306 49.5233 20.2737 35.7693 20.2737C22.013 20.2737 12.0845 15.4309 13.4376 10.0792V10.0792ZM35.7693 4.02343C26.1713 4.02343 17.6309 6.5387 16.5949 9.96253C15.4339 13.7984 23.9583 17.2688 35.7693 17.2688C47.5826 17.2688 56.1055 13.7979 54.9456 9.96253C53.9095 6.53819 45.3694 4.02343 35.7693 4.02343V4.02343Z" fill="url(#paint10_linear_269_433)"/>
<path d="M30.5577 20.0278L30.5637 20.0319L31.2729 21.2822C32.7163 21.4056 34.2175 21.4762 35.7696 21.4762C37.3289 21.4762 38.8336 21.4059 40.2866 21.2792L40.9768 20.0314L40.9809 20.0273C39.3211 20.1852 37.5808 20.2727 35.7701 20.2727C34.0297 20.2737 32.2903 20.192 30.5577 20.0278V20.0278ZM58.2182 11.2358C58.0411 15.0622 52.1594 18.4523 43.4653 19.7299L43.4684 19.733L44.3164 20.7463C52.8233 19.2171 58.4196 15.4608 58.2182 11.2358V11.2358ZM13.3212 11.2358C13.12 15.465 18.7159 19.2169 27.2212 20.7463L28.0713 19.733L28.0734 19.7299C19.3777 18.4525 13.5001 15.0624 13.3212 11.2358V11.2358Z" fill="url(#paint11_linear_269_433)"/>
</g>
<defs>
<linearGradient id="paint0_linear_269_433" x1="35.7696" y1="38.0495" x2="35.7696" y2="14.7034" gradientUnits="userSpaceOnUse">
<stop stop-color="#F0F3F5"/>
<stop offset="0.056" stop-color="#E2E5E8"/>
<stop offset="0.138" stop-color="#D4D8DD"/>
<stop offset="0.242" stop-color="#CCD0D6"/>
<stop offset="0.44" stop-color="#CACED4"/>
<stop offset="0.568" stop-color="#B3B7BD"/>
<stop offset="0.835" stop-color="#797C83"/>
<stop offset="1" stop-color="#52545C"/>
</linearGradient>
<linearGradient id="paint1_linear_269_433" x1="35.7703" y1="20.2613" x2="35.7703" y2="7.61054" gradientUnits="userSpaceOnUse">
<stop stop-color="#F0F3F5"/>
<stop offset="0.056" stop-color="#E2E5E8"/>
<stop offset="0.138" stop-color="#D4D8DD"/>
<stop offset="0.242" stop-color="#CCD0D6"/>
<stop offset="0.44" stop-color="#CACED4"/>
<stop offset="0.568" stop-color="#B3B7BD"/>
<stop offset="0.835" stop-color="#797C83"/>
<stop offset="1" stop-color="#52545C"/>
</linearGradient>
<linearGradient id="paint2_linear_269_433" x1="39.97" y1="17.9358" x2="32.0709" y2="11.3076" gradientUnits="userSpaceOnUse">
<stop stop-color="#F0F3F5"/>
<stop offset="0.056" stop-color="#E2E5E8"/>
<stop offset="0.138" stop-color="#D4D8DD"/>
<stop offset="0.242" stop-color="#CCD0D6"/>
<stop offset="0.44" stop-color="#CACED4"/>
<stop offset="0.568" stop-color="#B3B7BD"/>
<stop offset="0.835" stop-color="#797C83"/>
<stop offset="1" stop-color="#52545C"/>
</linearGradient>
<linearGradient id="paint3_linear_269_433" x1="40.7733" y1="28.9624" x2="29.2548" y2="22.3123" gradientUnits="userSpaceOnUse">
<stop stop-color="#F0F3F5"/>
<stop offset="0.056" stop-color="#E2E5E8"/>
<stop offset="0.138" stop-color="#D4D8DD"/>
<stop offset="0.242" stop-color="#CCD0D6"/>
<stop offset="0.44" stop-color="#CACED4"/>
<stop offset="0.568" stop-color="#B3B7BD"/>
<stop offset="0.835" stop-color="#797C83"/>
<stop offset="1" stop-color="#52545C"/>
</linearGradient>
<linearGradient id="paint4_linear_269_433" x1="31.7284" y1="1.41268" x2="31.7284" y2="21.4782" gradientUnits="userSpaceOnUse">
<stop stop-color="#F0F3F5"/>
<stop offset="0.056" stop-color="#E2E5E8"/>
<stop offset="0.138" stop-color="#D4D8DD"/>
<stop offset="0.242" stop-color="#CCD0D6"/>
<stop offset="0.44" stop-color="#CACED4"/>
<stop offset="0.568" stop-color="#B3B7BD"/>
<stop offset="0.835" stop-color="#797C83"/>
<stop offset="1" stop-color="#52545C"/>
</linearGradient>
<linearGradient id="paint5_linear_269_433" x1="39.8101" y1="1.41268" x2="39.8101" y2="21.4782" gradientUnits="userSpaceOnUse">
<stop stop-color="#F0F3F5"/>
<stop offset="0.056" stop-color="#E2E5E8"/>
<stop offset="0.138" stop-color="#D4D8DD"/>
<stop offset="0.242" stop-color="#CCD0D6"/>
<stop offset="0.44" stop-color="#CACED4"/>
<stop offset="0.568" stop-color="#B3B7BD"/>
<stop offset="0.835" stop-color="#797C83"/>
<stop offset="1" stop-color="#52545C"/>
</linearGradient>
<linearGradient id="paint6_linear_269_433" x1="40.055" y1="1.24448" x2="40.055" y2="34.7318" gradientUnits="userSpaceOnUse">
<stop stop-color="#F0F3F5"/>
<stop offset="0.056" stop-color="#E2E5E8"/>
<stop offset="0.138" stop-color="#D4D8DD"/>
<stop offset="0.242" stop-color="#CCD0D6"/>
<stop offset="0.44" stop-color="#CACED4"/>
<stop offset="0.568" stop-color="#B3B7BD"/>
<stop offset="0.835" stop-color="#797C83"/>
<stop offset="1" stop-color="#52545C"/>
</linearGradient>
<linearGradient id="paint7_linear_269_433" x1="31.484" y1="1.24422" x2="31.484" y2="34.7315" gradientUnits="userSpaceOnUse">
<stop stop-color="#F0F3F5"/>
<stop offset="0.056" stop-color="#E2E5E8"/>
<stop offset="0.138" stop-color="#D4D8DD"/>
<stop offset="0.242" stop-color="#CCD0D6"/>
<stop offset="0.44" stop-color="#CACED4"/>
<stop offset="0.568" stop-color="#B3B7BD"/>
<stop offset="0.835" stop-color="#797C83"/>
<stop offset="1" stop-color="#52545C"/>
</linearGradient>
<linearGradient id="paint8_linear_269_433" x1="35.7684" y1="1.41504" x2="35.7684" y2="42.3907" gradientUnits="userSpaceOnUse">
<stop stop-color="#F0F3F5"/>
<stop offset="0.253" stop-color="#EDF0F3"/>
<stop offset="0.406" stop-color="#E5E8EA"/>
<stop offset="0.531" stop-color="#D7DADC"/>
<stop offset="0.642" stop-color="#C3C5C9"/>
<stop offset="0.744" stop-color="#A9ABAF"/>
<stop offset="0.839" stop-color="#888B90"/>
<stop offset="0.926" stop-color="#63656B"/>
<stop offset="1" stop-color="#3D3F46"/>
</linearGradient>
<linearGradient id="paint9_linear_269_433" x1="35.7706" y1="1.41288" x2="35.7706" y2="42.3912" gradientUnits="userSpaceOnUse">
<stop stop-color="#F0F3F5"/>
<stop offset="0.253" stop-color="#EDF0F3"/>
<stop offset="0.406" stop-color="#E5E8EA"/>
<stop offset="0.531" stop-color="#D7DADC"/>
<stop offset="0.642" stop-color="#C3C5C9"/>
<stop offset="0.744" stop-color="#A9ABAF"/>
<stop offset="0.839" stop-color="#888B90"/>
<stop offset="0.926" stop-color="#63656B"/>
<stop offset="1" stop-color="#3D3F46"/>
</linearGradient>
<linearGradient id="paint10_linear_269_433" x1="35.7693" y1="1.41725" x2="35.7693" y2="42.3945" gradientUnits="userSpaceOnUse">
<stop stop-color="#F0F3F5"/>
<stop offset="0.253" stop-color="#EDF0F3"/>
<stop offset="0.406" stop-color="#E5E8EA"/>
<stop offset="0.531" stop-color="#D7DADC"/>
<stop offset="0.642" stop-color="#C3C5C9"/>
<stop offset="0.744" stop-color="#A9ABAF"/>
<stop offset="0.839" stop-color="#888B90"/>
<stop offset="0.926" stop-color="#63656B"/>
<stop offset="1" stop-color="#3D3F46"/>
</linearGradient>
<linearGradient id="paint11_linear_269_433" x1="35.7698" y1="9.91292" x2="35.7698" y2="21.5913" gradientUnits="userSpaceOnUse">
<stop stop-color="#CACED4"/>
<stop offset="1" stop-color="#52545C"/>
</linearGradient>
<clipPath id="clip0_269_433">
<rect width="73" height="60.2104" fill="white" transform="translate(0 0.89502)"/>
</clipPath>
</defs>
</svg>
